
        <svg xmlns="http://www.w3.org/2000/svg" xmlns:xlink="http://www.w3.org/1999/xlink" version="1.1" width="3171.4285714285716" height="2424.4547535304914" viewBox="0 0 3171.4285714285716 2424.4547535304914">
			
			<g transform="scale(8.571428571428571) translate(10, 10)">
				<defs id="SvgjsDefs1250"><linearGradient id="SvgjsLinearGradient1255"><stop id="SvgjsStop1256" stop-color="#fbb040" offset="0"/><stop id="SvgjsStop1257" stop-color="#f9ed32" offset="1"/></linearGradient></defs><g id="SvgjsG1251" featureKey="symbolFeature-0" transform="matrix(0.6542056074766355,0,0,0.6542056074766355,65.74766355140187,-28.130841121495326)" fill="#000"><defs xmlns="http://www.w3.org/2000/svg"/><g xmlns="http://www.w3.org/2000/svg"><g><polygon class="fil0" points="210,265 167,290 60,228 60,105 99,82 118,113 96,126 96,207 167,248 191,234 " style="fill: url(#SvgjsLinearGradient1255);"/><path class="fil0" d="M167 43l107 62 0 123 -47 27 -111 -182 51 -30zm66 167l4 -3 0 -81 -70 -41 -7 4 73 121z" style="fill: url(#SvgjsLinearGradient1255);"/></g></g></g><g id="SvgjsG1252" featureKey="nameFeature-0" transform="matrix(2.7241594928305184,0,0,2.7241594928305184,-4.358654928732736,149.3100886839947)" fill="#000"><path d="M8.32 40 l0 -5.04 l3.72 0 l0.76 -0.76 l0 -16.4 l-0.76 -0.76 l-3.72 0 l0 -5.04 l5.8 0 l3.72 3.72 l0 20.56 l-3.72 3.72 l-5.8 0 z M1.6 40 l0 -28 l5.04 0 l0 28 l-5.04 0 z M21.040000000000003 28.52 l0 -16.52 l5.04 0 l0 16.52 l-5.04 0 z M21.040000000000003 40 l0 -9.8 l5.04 0 l0 9.8 l-5.04 0 z M27.76 40 l0 -5.04 l7 0 l0 5.04 l-7 0 z M27.76 28.52 l0 -5.04 l4.76 0 l0 5.04 l-4.76 0 z M27.76 17.04 l0 -5.04 l7 0 l0 5.04 l-7 0 z M37.96 40 l0 -28 l5.04 0 l0 28 l-5.04 0 z M44.68 28.52 l0 -5.04 l4.76 0 l0 5.04 l-4.76 0 z M44.68 17.04 l0 -5.04 l7 0 l0 5.04 l-7 0 z M58.6 40 l-3.72 -3.72 l0 -20.56 l3.72 -3.72 l3.56 0 l0 5.04 l-1.48 0 l-0.76 0.76 l0 16.4 l0.76 0.76 l1.48 0 l0 5.04 l-3.56 0 z M63.84 40 l0 -5.04 l1.48 0 l0.76 -0.76 l0 -3.16 l5.04 0 l0 5.24 l-3.72 3.72 l-3.56 0 z M66.08 20.96 l0 -3.16 l-0.76 -0.76 l-1.48 0 l0 -5.04 l3.56 0 l3.72 3.72 l0 5.24 l-5.04 0 z M83.44 40 l0 -5.04 l1.6 0 l0.76 -0.76 l0 -16.4 l-0.76 -0.76 l-1.6 0 l0 -5.04 l3.68 0 l3.72 3.72 l0 20.56 l-3.72 3.72 l-3.68 0 z M78.03999999999999 40 l-3.72 -3.72 l0 -20.56 l3.72 -3.72 l3.68 0 l0 5.04 l-1.6 0 l-0.76 0.76 l0 16.4 l0.76 0.76 l1.6 0 l0 5.04 l-3.68 0 z M105 40 l-10.96 -28 l5.44 0 l5.84 14.96 l0 -14.96 l5.04 0 l0 28 l-5.36 0 z M94.12 40 l0 -23.2 l5.04 12.84 l0 10.36 l-5.04 0 z M114.83999999999999 37.56 l-1.28 -1.28 l0 -20.56 l3.72 -3.72 l3.72 0 l0 5.04 l-1.64 0 l-0.76 0.76 l0 15.96 z M119.32 41.68 l0 -1.68 l-2.04 0 l-1.28 -1.28 l3.8 -3.76 l4.04 0 l3.8 3.76 l-1.28 1.28 l-2 0 l0 1.68 l-5.04 0 z M128.79999999999998 37.56 l-3.76 -3.8 l0 -15.96 l-0.76 -0.76 l-1.6 0 l0 -5.04 l3.68 0 l3.72 3.72 l0 20.56 z"/></g>
			</g>
		</svg>
	