
        <svg xmlns="http://www.w3.org/2000/svg" xmlns:xlink="http://www.w3.org/1999/xlink" version="1.1" width="3171.4285714285716" height="2706.2336478878265" viewBox="0 0 3171.4285714285716 2706.2336478878265">
			
			<g transform="scale(8.571428571428571) translate(10, 10)">
				<defs id="SvgjsDefs1036"><linearGradient id="SvgjsLinearGradient1043"><stop id="SvgjsStop1044" stop-color="#fbb040" offset="0"/><stop id="SvgjsStop1045" stop-color="#f9ed32" offset="1"/></linearGradient></defs><g id="SvgjsG1037" featureKey="symbolFeature-0" transform="matrix(0.6542056074766355,0,0,0.6542056074766355,65.74766355140187,-28.130841121495326)" fill="#fff"><defs xmlns="http://www.w3.org/2000/svg"/><g xmlns="http://www.w3.org/2000/svg"><g><polygon class="fil0" points="210,265 167,290 60,228 60,105 99,82 118,113 96,126 96,207 167,248 191,234 " style="fill: url(#SvgjsLinearGradient1043);"/><path class="fil0" d="M167 43l107 62 0 123 -47 27 -111 -182 51 -30zm66 167l4 -3 0 -81 -70 -41 -7 4 73 121z" style="fill: url(#SvgjsLinearGradient1043);"/></g></g></g><g id="SvgjsG1038" featureKey="nameFeature-0" transform="matrix(2.7241594928305184,0,0,2.7241594928305184,-4.358654928732736,149.3100886839947)" fill="#fff"><path d="M8.32 40 l0 -5.04 l3.72 0 l0.76 -0.76 l0 -16.4 l-0.76 -0.76 l-3.72 0 l0 -5.04 l5.8 0 l3.72 3.72 l0 20.56 l-3.72 3.72 l-5.8 0 z M1.6 40 l0 -28 l5.04 0 l0 28 l-5.04 0 z M21.040000000000003 28.52 l0 -16.52 l5.04 0 l0 16.52 l-5.04 0 z M21.040000000000003 40 l0 -9.8 l5.04 0 l0 9.8 l-5.04 0 z M27.76 40 l0 -5.04 l7 0 l0 5.04 l-7 0 z M27.76 28.52 l0 -5.04 l4.76 0 l0 5.04 l-4.76 0 z M27.76 17.04 l0 -5.04 l7 0 l0 5.04 l-7 0 z M37.96 40 l0 -28 l5.04 0 l0 28 l-5.04 0 z M44.68 28.52 l0 -5.04 l4.76 0 l0 5.04 l-4.76 0 z M44.68 17.04 l0 -5.04 l7 0 l0 5.04 l-7 0 z M58.6 40 l-3.72 -3.72 l0 -20.56 l3.72 -3.72 l3.56 0 l0 5.04 l-1.48 0 l-0.76 0.76 l0 16.4 l0.76 0.76 l1.48 0 l0 5.04 l-3.56 0 z M63.84 40 l0 -5.04 l1.48 0 l0.76 -0.76 l0 -3.16 l5.04 0 l0 5.24 l-3.72 3.72 l-3.56 0 z M66.08 20.96 l0 -3.16 l-0.76 -0.76 l-1.48 0 l0 -5.04 l3.56 0 l3.72 3.72 l0 5.24 l-5.04 0 z M83.44 40 l0 -5.04 l1.6 0 l0.76 -0.76 l0 -16.4 l-0.76 -0.76 l-1.6 0 l0 -5.04 l3.68 0 l3.72 3.72 l0 20.56 l-3.72 3.72 l-3.68 0 z M78.03999999999999 40 l-3.72 -3.72 l0 -20.56 l3.72 -3.72 l3.68 0 l0 5.04 l-1.6 0 l-0.76 0.76 l0 16.4 l0.76 0.76 l1.6 0 l0 5.04 l-3.68 0 z M105 40 l-10.96 -28 l5.44 0 l5.84 14.96 l0 -14.96 l5.04 0 l0 28 l-5.36 0 z M94.12 40 l0 -23.2 l5.04 12.84 l0 10.36 l-5.04 0 z M114.83999999999999 37.56 l-1.28 -1.28 l0 -20.56 l3.72 -3.72 l3.72 0 l0 5.04 l-1.64 0 l-0.76 0.76 l0 15.96 z M119.32 41.68 l0 -1.68 l-2.04 0 l-1.28 -1.28 l3.8 -3.76 l4.04 0 l3.8 3.76 l-1.28 1.28 l-2 0 l0 1.68 l-5.04 0 z M128.79999999999998 37.56 l-3.76 -3.8 l0 -15.96 l-0.76 -0.76 l-1.6 0 l0 -5.04 l3.68 0 l3.72 3.72 l0 20.56 z"/></g><g id="SvgjsG1039" featureKey="sloganFeature-0" transform="matrix(1.4365775313990636,0,0,1.4365775313990636,75.79341850726544,264.8212047117972)" fill="#fff"><path d="M15.791 20.58594 l-2.4414 0.92773 l-1.8066 -2.0313 c-0.99609 0.45898 -2.1484 0.71289 -3.3984 0.71289 c-4.1992 0 -7.3047 -2.832 -7.3047 -7.2559 c0 -4.4336 3.1055 -7.2461 7.3047 -7.2461 s7.3047 2.8125 7.3047 7.2461 c0 2.0996 -0.69336 3.8379 -1.875 5.0879 z M3.7598 12.939499999999999 c0 3.0078 1.9043 4.707 4.3848 4.707 s4.3848 -1.6992 4.3848 -4.707 c0 -2.8516 -1.9043 -4.5508 -4.3848 -4.5508 s-4.3848 1.6992 -4.3848 4.5508 z M39.658156250000005 20 l-2.9199 0 l-0.92773 -10.635 l-3.5742 10.635 l-1.8945 0 l-3.5742 -10.635 l-0.9375 10.635 l-2.9297 0 l1.1816 -14.111 l4.1797 0 l3.0078 8.8574 l3.0469 -8.8574 l4.1797 0 z M52.168437499999996 20 l-1.0254 -2.9102 l-5.9277 0 l-1.0254 2.9102 l-2.998 0 l5.1953 -14.111 l3.584 0 l5.1953 14.111 l-2.998 0 z M46.0742375 14.6387 l4.209 0 l-2.0996 -5.9863 z M57.285184375 20 l0 -14.111 l5.1074 0 c4.502 0 6.7285 2.832 6.7285 7.0508 c0 4.2285 -2.2266 7.0605 -6.7285 7.0605 l-5.1074 0 z M60.214884375 17.4121 l2.0313 0 c2.5977 0 3.7891 -1.6211 3.7891 -4.4727 s-1.1914 -4.4727 -3.7891 -4.4727 l-2.0313 0 l0 8.9453 z M80.0490625 8.467 l-5.2344 0 l0 3.2031 l4.6387 0 l0 2.5488 l-4.6387 0 l0 3.1934 l5.2344 0 l0 2.5879 l-8.1836 0 l0 -14.111 l8.1836 0 l0 2.5781 z M96.445546875 8.467 l-5.2344 0 l0 3.2031 l4.6387 0 l0 2.5488 l-4.6387 0 l0 3.1934 l5.2344 0 l0 2.5879 l-8.1836 0 l0 -14.111 l8.1836 0 l0 2.5781 z M108.90671875 20 l-1.0254 -2.9102 l-5.9277 0 l-1.0254 2.9102 l-2.998 0 l5.1953 -14.111 l3.584 0 l5.1953 14.111 l-2.998 0 z M102.81251875 14.6387 l4.209 0 l-2.0996 -5.9863 z M118.710965625 20.19531 c-3.0273 0 -5.3906 -1.4551 -5.8203 -4.1016 l3.0273 -0.69336 c0.19531 1.582 1.3574 2.4023 2.9102 2.4023 c1.1914 0 2.1387 -0.52734 2.1289 -1.7188 c-0.0097656 -1.3281 -1.5723 -1.748 -3.291 -2.2754 c-2.0703 -0.64453 -4.2871 -1.4063 -4.2871 -4.0039 c0 -2.627 2.1484 -4.1113 4.9805 -4.1113 c2.4805 0 4.9805 1.0059 5.5469 3.7109 l-2.832 0.70313 c-0.26367 -1.4063 -1.2109 -2.0215 -2.5391 -2.0215 c-1.1816 0 -2.1875 0.48828 -2.1875 1.6504 c0 1.084 1.3867 1.4453 2.9883 1.9238 c2.1289 0.64453 4.6484 1.4648 4.6484 4.2773 c0 2.998 -2.5098 4.2578 -5.2734 4.2578 z M137.27528125 5.888999999999999 l-4.6387 7.3535 l0 6.7578 l-2.9395 0 l0 -6.6895 l-4.668 -7.4219 l3.2422 0 l2.8809 4.8047 l2.8906 -4.8047 l3.2324 0 z"/></g>
			</g>
		</svg>
	